<mxfile host="app.diagrams.net" agent="Mozilla/5.0 (Windows NT 10.0; Win64; x64) AppleWebKit/537.36 (KHTML, like Gecko) Chrome/127.0.0.0 Safari/537.36" version="24.7.6">
  <diagram name="Page-1" id="6PsH3mtnEnNb81ONRw0l">
    <mxGraphModel dx="794" dy="454" grid="1" gridSize="10" guides="1" tooltips="1" connect="1" arrows="1" fold="1" page="1" pageScale="1" pageWidth="850" pageHeight="1100" math="0" shadow="0">
      <root>
        <mxCell id="0" />
        <mxCell id="1" parent="0" />
        <mxCell id="u2EufDMsuD6epvsz4VcV-10" value="" style="group" vertex="1" connectable="0" parent="1">
          <mxGeometry x="350" y="200" width="80" height="50" as="geometry" />
        </mxCell>
        <mxCell id="u2EufDMsuD6epvsz4VcV-1" value="" style="ellipse;whiteSpace=wrap;html=1;" vertex="1" parent="u2EufDMsuD6epvsz4VcV-10">
          <mxGeometry width="80" height="50" as="geometry" />
        </mxCell>
        <mxCell id="u2EufDMsuD6epvsz4VcV-3" value="RST" style="text;html=1;align=center;verticalAlign=middle;whiteSpace=wrap;rounded=0;" vertex="1" parent="u2EufDMsuD6epvsz4VcV-10">
          <mxGeometry x="15" y="10" width="60" height="30" as="geometry" />
        </mxCell>
        <mxCell id="u2EufDMsuD6epvsz4VcV-11" value="" style="group" vertex="1" connectable="0" parent="1">
          <mxGeometry x="355" y="300" width="80" height="50" as="geometry" />
        </mxCell>
        <mxCell id="u2EufDMsuD6epvsz4VcV-4" value="" style="ellipse;whiteSpace=wrap;html=1;" vertex="1" parent="u2EufDMsuD6epvsz4VcV-11">
          <mxGeometry width="80" height="50" as="geometry" />
        </mxCell>
        <mxCell id="u2EufDMsuD6epvsz4VcV-5" value="RST" style="text;html=1;align=center;verticalAlign=middle;whiteSpace=wrap;rounded=0;container=1;" vertex="1" parent="u2EufDMsuD6epvsz4VcV-11">
          <mxGeometry x="15" y="10" width="60" height="30" as="geometry" />
        </mxCell>
        <mxCell id="u2EufDMsuD6epvsz4VcV-15" style="edgeStyle=orthogonalEdgeStyle;rounded=0;orthogonalLoop=1;jettySize=auto;html=1;entryX=1;entryY=0.5;entryDx=0;entryDy=0;" edge="1" parent="1" source="u2EufDMsuD6epvsz4VcV-3" target="u2EufDMsuD6epvsz4VcV-5">
          <mxGeometry relative="1" as="geometry">
            <Array as="points">
              <mxPoint x="470" y="225" />
              <mxPoint x="470" y="325" />
            </Array>
          </mxGeometry>
        </mxCell>
        <mxCell id="u2EufDMsuD6epvsz4VcV-16" style="edgeStyle=orthogonalEdgeStyle;rounded=0;orthogonalLoop=1;jettySize=auto;html=1;entryX=0;entryY=0.5;entryDx=0;entryDy=0;" edge="1" parent="1" source="u2EufDMsuD6epvsz4VcV-5" target="u2EufDMsuD6epvsz4VcV-1">
          <mxGeometry relative="1" as="geometry">
            <Array as="points">
              <mxPoint x="330" y="325" />
              <mxPoint x="330" y="225" />
            </Array>
          </mxGeometry>
        </mxCell>
        <mxCell id="u2EufDMsuD6epvsz4VcV-17" value="0/IDLE" style="text;html=1;align=center;verticalAlign=middle;resizable=0;points=[];autosize=1;strokeColor=none;fillColor=none;" vertex="1" parent="1">
          <mxGeometry x="375" y="160" width="60" height="30" as="geometry" />
        </mxCell>
        <mxCell id="u2EufDMsuD6epvsz4VcV-19" value="" style="endArrow=none;html=1;rounded=0;exitX=0;exitY=0;exitDx=0;exitDy=0;" edge="1" parent="1">
          <mxGeometry width="50" height="50" relative="1" as="geometry">
            <mxPoint x="376.5" y="200" as="sourcePoint" />
            <mxPoint x="400" y="180" as="targetPoint" />
          </mxGeometry>
        </mxCell>
        <mxCell id="u2EufDMsuD6epvsz4VcV-21" value="" style="endArrow=classic;html=1;rounded=0;" edge="1" parent="1">
          <mxGeometry width="50" height="50" relative="1" as="geometry">
            <mxPoint x="400" y="180" as="sourcePoint" />
            <mxPoint x="420" y="200" as="targetPoint" />
          </mxGeometry>
        </mxCell>
        <mxCell id="u2EufDMsuD6epvsz4VcV-35" value="1/NEXT_STATE" style="text;html=1;align=center;verticalAlign=middle;resizable=0;points=[];autosize=1;strokeColor=none;fillColor=none;" vertex="1" parent="1">
          <mxGeometry x="460" y="260" width="110" height="30" as="geometry" />
        </mxCell>
        <mxCell id="u2EufDMsuD6epvsz4VcV-36" value="1/NEXT_STATE" style="text;html=1;align=center;verticalAlign=middle;resizable=0;points=[];autosize=1;strokeColor=none;fillColor=none;" vertex="1" parent="1">
          <mxGeometry x="340" y="370" width="110" height="30" as="geometry" />
        </mxCell>
        <mxCell id="u2EufDMsuD6epvsz4VcV-37" value="" style="endArrow=none;html=1;rounded=0;" edge="1" parent="1">
          <mxGeometry width="50" height="50" relative="1" as="geometry">
            <mxPoint x="385" y="370" as="sourcePoint" />
            <mxPoint x="405" y="350" as="targetPoint" />
          </mxGeometry>
        </mxCell>
        <mxCell id="u2EufDMsuD6epvsz4VcV-39" value="" style="endArrow=classic;html=1;rounded=0;" edge="1" parent="1">
          <mxGeometry width="50" height="50" relative="1" as="geometry">
            <mxPoint x="386" y="372" as="sourcePoint" />
            <mxPoint x="366" y="342" as="targetPoint" />
          </mxGeometry>
        </mxCell>
        <mxCell id="u2EufDMsuD6epvsz4VcV-40" value="0/IDLE" style="text;html=1;align=center;verticalAlign=middle;resizable=0;points=[];autosize=1;strokeColor=none;fillColor=none;" vertex="1" parent="1">
          <mxGeometry x="280" y="260" width="60" height="30" as="geometry" />
        </mxCell>
        <mxCell id="u2EufDMsuD6epvsz4VcV-72" value="ALU_SEL =&lt;div&gt;4&#39;b1110&lt;br&gt;NEXT_STATE=&lt;div&gt;CALC&lt;/div&gt;&lt;/div&gt;" style="strokeWidth=2;html=1;shape=mxgraph.flowchart.decision;whiteSpace=wrap;" vertex="1" parent="1">
          <mxGeometry x="412.5" y="540" width="145" height="120" as="geometry" />
        </mxCell>
        <mxCell id="u2EufDMsuD6epvsz4VcV-73" value="IDLE" style="strokeWidth=2;html=1;shape=mxgraph.flowchart.start_1;whiteSpace=wrap;" vertex="1" parent="1">
          <mxGeometry x="435" y="420" width="100" height="60" as="geometry" />
        </mxCell>
        <mxCell id="u2EufDMsuD6epvsz4VcV-74" style="edgeStyle=orthogonalEdgeStyle;rounded=0;orthogonalLoop=1;jettySize=auto;html=1;exitX=0.5;exitY=1;exitDx=0;exitDy=0;exitPerimeter=0;entryX=0.5;entryY=0;entryDx=0;entryDy=0;entryPerimeter=0;" edge="1" parent="1" source="u2EufDMsuD6epvsz4VcV-73" target="u2EufDMsuD6epvsz4VcV-72">
          <mxGeometry relative="1" as="geometry" />
        </mxCell>
        <mxCell id="u2EufDMsuD6epvsz4VcV-75" value="&lt;div&gt;&lt;br&gt;&lt;/div&gt;" style="edgeLabel;html=1;align=center;verticalAlign=middle;resizable=0;points=[];" vertex="1" connectable="0" parent="u2EufDMsuD6epvsz4VcV-74">
          <mxGeometry x="0.3111" y="1" relative="1" as="geometry">
            <mxPoint as="offset" />
          </mxGeometry>
        </mxCell>
        <mxCell id="u2EufDMsuD6epvsz4VcV-76" value="IDLE&lt;div style=&quot;forced-color-adjust: none;&quot;&gt;&lt;br style=&quot;forced-color-adjust: none; color: rgb(0, 0, 0); font-family: Helvetica; font-size: 11px; font-style: normal; font-variant-ligatures: normal; font-variant-caps: normal; font-weight: 400; letter-spacing: normal; orphans: 2; text-align: center; text-indent: 0px; text-transform: none; widows: 2; word-spacing: 0px; -webkit-text-stroke-width: 0px; white-space: nowrap; background-color: rgb(255, 255, 255); text-decoration-thickness: initial; text-decoration-style: initial; text-decoration-color: initial;&quot;&gt;&#xa;&#xa;&lt;/div&gt;" style="text;whiteSpace=wrap;html=1;" vertex="1" parent="1">
          <mxGeometry x="490" y="510" width="60" height="80" as="geometry" />
        </mxCell>
        <mxCell id="u2EufDMsuD6epvsz4VcV-81" value="&lt;div style=&quot;forced-color-adjust: none;&quot;&gt;CALC&lt;br style=&quot;forced-color-adjust: none; color: rgb(0, 0, 0); font-family: Helvetica; font-size: 11px; font-style: normal; font-variant-ligatures: normal; font-variant-caps: normal; font-weight: 400; letter-spacing: normal; orphans: 2; text-align: center; text-indent: 0px; text-transform: none; widows: 2; word-spacing: 0px; -webkit-text-stroke-width: 0px; white-space: nowrap; background-color: rgb(255, 255, 255); text-decoration-thickness: initial; text-decoration-style: initial; text-decoration-color: initial;&quot;&gt;&lt;br&gt;&lt;br&gt;&lt;/div&gt;" style="text;whiteSpace=wrap;html=1;" vertex="1" parent="1">
          <mxGeometry x="485" y="660" width="60" height="50" as="geometry" />
        </mxCell>
        <mxCell id="u2EufDMsuD6epvsz4VcV-106" style="edgeStyle=orthogonalEdgeStyle;rounded=0;orthogonalLoop=1;jettySize=auto;html=1;" edge="1" parent="1" source="u2EufDMsuD6epvsz4VcV-82" target="u2EufDMsuD6epvsz4VcV-105">
          <mxGeometry relative="1" as="geometry" />
        </mxCell>
        <mxCell id="u2EufDMsuD6epvsz4VcV-109" style="edgeStyle=orthogonalEdgeStyle;rounded=0;orthogonalLoop=1;jettySize=auto;html=1;" edge="1" parent="1" source="u2EufDMsuD6epvsz4VcV-82">
          <mxGeometry relative="1" as="geometry">
            <mxPoint x="370" y="600" as="targetPoint" />
          </mxGeometry>
        </mxCell>
        <mxCell id="u2EufDMsuD6epvsz4VcV-82" value="YS==0&lt;br&gt;NEXT_STATE=&lt;div&gt;DONE&lt;/div&gt;" style="strokeWidth=2;html=1;shape=mxgraph.flowchart.decision;whiteSpace=wrap;" vertex="1" parent="1">
          <mxGeometry x="402.5" y="700" width="165" height="120" as="geometry" />
        </mxCell>
        <mxCell id="u2EufDMsuD6epvsz4VcV-84" style="edgeStyle=orthogonalEdgeStyle;rounded=0;orthogonalLoop=1;jettySize=auto;html=1;entryX=0.5;entryY=0;entryDx=0;entryDy=0;entryPerimeter=0;" edge="1" parent="1" source="u2EufDMsuD6epvsz4VcV-72" target="u2EufDMsuD6epvsz4VcV-82">
          <mxGeometry relative="1" as="geometry" />
        </mxCell>
        <mxCell id="u2EufDMsuD6epvsz4VcV-102" value="" style="endArrow=none;html=1;rounded=0;" edge="1" parent="1">
          <mxGeometry width="50" height="50" relative="1" as="geometry">
            <mxPoint x="370" y="600" as="sourcePoint" />
            <mxPoint x="412.5" y="599.5" as="targetPoint" />
          </mxGeometry>
        </mxCell>
        <mxCell id="u2EufDMsuD6epvsz4VcV-103" value="" style="endArrow=none;html=1;rounded=0;" edge="1" parent="1">
          <mxGeometry width="50" height="50" relative="1" as="geometry">
            <mxPoint x="370" y="600" as="sourcePoint" />
            <mxPoint x="370" y="449.5" as="targetPoint" />
          </mxGeometry>
        </mxCell>
        <mxCell id="u2EufDMsuD6epvsz4VcV-104" value="" style="endArrow=classic;html=1;rounded=0;entryX=0;entryY=0.5;entryDx=0;entryDy=0;entryPerimeter=0;" edge="1" parent="1" target="u2EufDMsuD6epvsz4VcV-73">
          <mxGeometry width="50" height="50" relative="1" as="geometry">
            <mxPoint x="370" y="450" as="sourcePoint" />
            <mxPoint x="420" y="400" as="targetPoint" />
          </mxGeometry>
        </mxCell>
        <mxCell id="u2EufDMsuD6epvsz4VcV-105" value="END" style="strokeWidth=2;html=1;shape=mxgraph.flowchart.start_1;whiteSpace=wrap;" vertex="1" parent="1">
          <mxGeometry x="435" y="850" width="100" height="60" as="geometry" />
        </mxCell>
      </root>
    </mxGraphModel>
  </diagram>
</mxfile>
